<svg width="120" height="120" viewBox="0 0 120 120" fill="none" xmlns="http://www.w3.org/2000/svg">
  <!-- Background Circle -->
  <circle cx="60" cy="60" r="60" fill="#E8E5F5"/>
  
  <!-- Headset -->
  <path d="M35 55C35 42 45 32 60 32C75 32 85 42 85 55" stroke="#8B7FD9" stroke-width="4" stroke-linecap="round"/>
  <circle cx="32" cy="58" r="6" fill="#8B7FD9"/>
  <circle cx="88" cy="58" r="6" fill="#8B7FD9"/>
  
  <!-- Face -->
  <circle cx="60" cy="65" r="28" fill="#FFE4D6"/>
  
  <!-- Hair -->
  <path d="M40 50C40 38 48 30 60 30C72 30 80 38 80 50L80 55C80 55 70 48 60 48C50 48 40 55 40 55L40 50Z" fill="#6B5FC9"/>
  
  <!-- Eyes (looking up) -->
  <circle cx="52" cy="60" r="3" fill="#1F2937"/>
  <circle cx="68" cy="60" r="3" fill="#1F2937"/>
  
  <!-- Thinking expression -->
  <path d="M52 72C52 72 55 74 60 74C65 74 68 72 68 72" stroke="#1F2937" stroke-width="2" stroke-linecap="round"/>
  
  <!-- Thought bubbles -->
  <circle cx="85" cy="35" r="4" fill="#FFD88A" opacity="0.8"/>
  <circle cx="93" cy="28" r="6" fill="#FFD88A" opacity="0.6"/>
  <circle cx="102" cy="22" r="8" fill="#FFD88A" opacity="0.4"/>
  
  <!-- Mic -->
  <path d="M60 82L60 88" stroke="#8B7FD9" stroke-width="2" stroke-linecap="round"/>
  <rect x="57" y="88" width="6" height="8" rx="3" fill="#8B7FD9"/>
</svg>

