<svg width="120" height="120" viewBox="0 0 120 120" fill="none" xmlns="http://www.w3.org/2000/svg">
  <!-- Background Circle -->
  <circle cx="60" cy="60" r="60" fill="#E8E5F5"/>
  
  <!-- Headset -->
  <path d="M35 55C35 42 45 32 60 32C75 32 85 42 85 55" stroke="#8B7FD9" stroke-width="4" stroke-linecap="round"/>
  <circle cx="32" cy="58" r="6" fill="#8B7FD9"/>
  <circle cx="88" cy="58" r="6" fill="#8B7FD9"/>
  
  <!-- Face -->
  <circle cx="60" cy="65" r="28" fill="#FFE4D6"/>
  
  <!-- Hair -->
  <path d="M40 50C40 38 48 30 60 30C72 30 80 38 80 50L80 55C80 55 70 48 60 48C50 48 40 55 40 55L40 50Z" fill="#6B5FC9"/>
  
  <!-- Eyes -->
  <circle cx="52" cy="63" r="3" fill="#1F2937"/>
  <circle cx="68" cy="63" r="3" fill="#1F2937"/>
  
  <!-- Smile -->
  <path d="M52 73C52 73 56 77 60 77C64 77 68 73 68 73" stroke="#1F2937" stroke-width="2" stroke-linecap="round"/>
  
  <!-- Mic -->
  <path d="M60 82L60 88" stroke="#8B7FD9" stroke-width="2" stroke-linecap="round"/>
  <rect x="57" y="88" width="6" height="8" rx="3" fill="#8B7FD9"/>
</svg>

